<svg aria-hidden="true" style="width:0;height:0;position:absolute;overflow:hidden" xmlns="http://www.w3.org/2000/svg"><defs><symbol id="icon-left" viewBox="0 0 18 32"><path d="m.48 16.965 14.862 14.16c.239.228.563.368.92.368s.681-.14.921-.369h-.001l.016-.016a1.223 1.223 0 0 0 0-1.779h-.001L3.202 15.996 17.197 2.669a1.223 1.223 0 0 0 0-1.779h-.001L17.18.874c-.239-.228-.563-.368-.92-.368s-.681.14-.921.369h.001L.478 15.035c-.255.243-.413.586-.413.965s.158.722.413.965h.001z"/></symbol><symbol id="icon-menu" viewBox="0 0 32 32"><path d="M2.666 8c0-.737.597-1.334 1.334-1.334h24a1.334 1.334 0 1 1 0 2.668H4A1.334 1.334 0 0 1 2.666 8zm0 8.042A1.335 1.335 0 0 1 4 14.709h24l.039-.001a1.334 1.334 0 1 1 0 2.668l-.041-.001H28 4a1.334 1.334 0 0 1-1.334-1.334zM4 22.752a1.334 1.334 0 0 0-.002 2.666H28l.039.001a1.334 1.334 0 1 0 0-2.668l-.041.001H28 4z"/></symbol><symbol id="icon-right" viewBox="0 0 18 32"><path d="M17.653 15.035 2.791.875c-.239-.228-.563-.368-.92-.368S1.19.647.95.876h.001L.935.892A1.224 1.224 0 0 0 .934 2.67l13.995 13.333L.934 29.331a1.223 1.223 0 0 0 0 1.779h.001l.016.016c.239.228.563.368.92.368s.681-.14.921-.369h-.001l14.862-14.16c.255-.243.413-.586.413-.965s-.158-.722-.413-.965z"/></symbol><symbol id="icon-star" viewBox="0 0 34 32"><path fill="#ffe550" style="fill:var(--color2,#ffe550)" d="M15.42 1.038c.584-1.384 2.576-1.384 3.16 0L22.028 9.2c.246.582.804.98 1.444 1.032l8.952.706c1.516.12 2.132 1.982.976 2.958l-6.82 5.752a1.666 1.666 0 0 0-.55 1.682l-.002-.011 2.084 8.6c.352 1.456-1.258 2.608-2.556 1.828l-7.664-4.61a1.734 1.734 0 0 0-1.792.004l.008-.004-7.664 4.61c-1.3.78-2.908-.372-2.556-1.828l2.084-8.6a1.663 1.663 0 0 0-.55-1.667l-.003-.002-6.82-5.75c-1.156-.976-.54-2.84.976-2.96l8.952-.704a1.714 1.714 0 0 0 1.44-1.021l.004-.011 3.448-8.164z"/></symbol><symbol id="icon-cross" viewBox="0 0 30 32"><path d="m16.219 14.826 4.928-4.923a1.013 1.013 0 0 0-1.431-1.428l.001-.001-4.927 4.874-4.959-4.955a1.014 1.014 0 0 0-1.427 1.429l-.001-.002 4.948 5.006-4.847 4.782a1.013 1.013 0 1 0 1.429 1.43l.001-.001 4.836-4.832 4.806 4.801a1.014 1.014 0 0 0 1.427-1.429l.001.002-4.785-4.751z"/></symbol><symbol id="icon-right-arrow" viewBox="0 0 18 32"><path d="M17.653 15.035 2.791.875c-.239-.228-.563-.368-.92-.368S1.19.647.95.876h.001L.935.892A1.224 1.224 0 0 0 .934 2.67l13.995 13.333L.934 29.331a1.223 1.223 0 0 0 0 1.779h.001l.016.016c.239.228.563.368.92.368s.681-.14.921-.369h-.001l14.862-14.16c.255-.243.413-.586.413-.965s-.158-.722-.413-.965z"/></symbol><symbol id="icon-left-arrow" viewBox="0 0 18 32"><path d="m.48 16.965 14.862 14.16c.239.228.563.368.92.368s.681-.14.921-.369h-.001l.016-.016a1.223 1.223 0 0 0 0-1.779h-.001L3.202 15.996 17.197 2.669a1.223 1.223 0 0 0 0-1.779h-.001L17.18.874c-.239-.228-.563-.368-.92-.368s-.681.14-.921.369h.001L.478 15.035c-.255.243-.413.586-.413.965s.158.722.413.965h.001z"/></symbol><symbol id="btn-cross" viewBox="0 0 32 32"><path d="M19.141 16.123 29.817 5.455a2.196 2.196 0 0 0-3.098-3.095L16.043 12.918 5.301 2.184a2.202 2.202 0 0 0-2.983.115 2.193 2.193 0 0 0-.115 2.98l10.72 10.844L2.422 26.484a2.203 2.203 0 0 0-.767 1.582c-.012.302.039.604.15.885.11.282.278.538.492.751s.47.381.752.492a2.203 2.203 0 0 0 2.47-.615l10.479-10.471 10.413 10.405a2.202 2.202 0 0 0 2.983-.115 2.194 2.194 0 0 0 .115-2.979L19.14 16.124z"/></symbol></defs></svg>